<svg xmlns="http://www.w3.org/2000/svg"  viewBox="0 0 64 64" width="64px" height="64px"><radialGradient id="O~MRqHLFtRvMuQYag4RSia" cx="32" cy="33.5" r="30.301" gradientTransform="matrix(1 0 0 -1 0 66)" gradientUnits="userSpaceOnUse"><stop offset="0" stop-color="#9ceeff"/><stop offset=".642" stop-color="#c5f5ff"/><stop offset="1" stop-color="#dcf9ff"/></radialGradient><path fill="url(#O~MRqHLFtRvMuQYag4RSia)" d="M63.99,36.31C64.1,38.33,62.5,40,60.5,40h-9.48C51.009,40,51,40.009,51,40.02v5.96	c0,0.011,0.009,0.02,0.02,0.02h9.48c1.58,0,2.81,1.46,2.43,3.11C62.66,50.25,61.54,51,60.37,51H59.5c-0.825,0-1.5,0.675-1.5,1.5l0,0	c0,0.825,0.675,1.5,1.5,1.5l0,0c2,0,3.6,1.67,3.49,3.69C62.9,59.58,61.2,61,59.3,61H4c-2.48,0-4.43-2.26-3.92-4.82	C0.47,54.29,2.25,53,4.18,53H5c2.92,0,5.26-2.51,4.98-5.49C9.73,44.91,7.4,43,4.78,43H4c-2.48,0-4.43-2.26-3.92-4.82	C0.47,36.29,2.07,35,4,35l0,0c1.301,0,2.332-1.252,1.899-2.634C5.633,31.52,4.776,31,3.89,31H3.5c-2,0-3.6-1.67-3.49-3.69	C0.1,25.42,1.8,24,3.7,24h7.28c0.011,0,0.02-0.009,0.02-0.02v-4.96c0-0.011-0.009-0.02-0.02-0.02H3.5	c-1.577,0-2.805-1.445-2.432-3.091C1.329,14.757,2.448,14,3.63,14H4.5C5.33,14,6,13.33,6,12.5S5.33,11,4.5,11h-1	c-2,0-3.6-1.67-3.49-3.69C0.1,5.42,1.8,4,3.7,4H60c2.34,0,4.21,2.01,3.98,4.39c-0.19,2.05-2,3.56-4.04,3.61H58.5	c-2.485,0-4.5,2.015-4.5,4.5l0,0c0,2.485,0,4.5,0,4.5h6c2.48,0,4.43,2.26,3.92,4.82C63.53,27.71,61.93,29,60,29l0,0	c-1.1,0-2,0.9-2,2l0,0c0,1.1,0.9,2,2,2h0.3C62.2,33,63.9,34.42,63.99,36.31z"/><linearGradient id="O~MRqHLFtRvMuQYag4RSib" x1="27.5" x2="37.153" y1="1.352" y2="71.389" gradientTransform="matrix(1 0 0 -1 0 66)" gradientUnits="userSpaceOnUse"><stop offset="0" stop-color="#feaa53"/><stop offset=".612" stop-color="#ffcd49"/><stop offset="1" stop-color="#ffde44"/></linearGradient><path fill="url(#O~MRqHLFtRvMuQYag4RSib)" d="M18,8h28c5.523,0,10,4.477,10,10v28c0,5.523-4.477,10-10,10H18c-5.523,0-10-4.477-10-10V18	C8,12.477,12.477,8,18,8z"/><path fill="#fff" d="M21.086,18c-2.907,0-5.528,1-7.393,2.615C13.252,20.997,13,21.532,13,22.092v9.628v10.539	c0,0.827,1.029,1.306,1.728,0.792C16.473,41.768,18.684,41,21.086,41c3.359,0,6.332,1.494,8.204,3.807	c0.308,0.381,0.96,0.173,0.96-0.303V30.3v-3.594c0-4.685-3.993-8.657-9.044-8.705C21.166,18,21.126,18,21.086,18z"/><path fill="#fff" d="M42.914,18c2.907,0,5.528,1,7.393,2.615C50.748,20.997,51,21.532,51,22.092v9.628v10.539	c0,0.827-1.029,1.306-1.728,0.792C47.527,41.768,45.316,41,42.914,41c-3.359,0-6.332,1.494-8.204,3.807	c-0.308,0.381-0.96,0.173-0.96-0.304V30.299v-3.594c0-4.685,3.993-8.657,9.044-8.705C42.834,18,42.874,18,42.914,18z"/><linearGradient id="O~MRqHLFtRvMuQYag4RSic" x1="16.5" x2="16.5" y1="7.234" y2="59.679" gradientTransform="matrix(1 0 0 -1 0 66)" gradientUnits="userSpaceOnUse"><stop offset="0" stop-color="#fdb265"/><stop offset=".612" stop-color="#ffd15d"/><stop offset="1" stop-color="#fde058"/></linearGradient><path fill="url(#O~MRqHLFtRvMuQYag4RSic)" d="M24.971,10.341C24.806,11.325,23.876,12,22.879,12H14.5c-0.828,0-1.5,0.672-1.5,1.5l0,0	c0,0.828,0.672,1.5,1.5,1.5l0,0c0.83,0,1.5,0.67,1.5,1.5S15.33,18,14.5,18H8c0-5.52,4.48-10,10-10h5	C24.212,8,25.181,9.092,24.971,10.341z"/><linearGradient id="O~MRqHLFtRvMuQYag4RSid" x1="47.501" x2="47.501" y1="10.413" y2="59.964" gradientTransform="matrix(1 0 0 -1 0 66)" gradientUnits="userSpaceOnUse"><stop offset="0" stop-color="#fca853"/><stop offset=".612" stop-color="#fdcb49"/><stop offset="1" stop-color="#fddc44"/></linearGradient><path fill="url(#O~MRqHLFtRvMuQYag4RSid)" d="M56,45v1c0,5.52-4.48,10-10,10h-5c-1.21,0-2.18-1.08-1.97-2.34c0.16-0.98,1.08-1.66,2.08-1.66	h8.39c0.83,0,1.5-0.67,1.5-1.5S50.33,49,49.5,49H49c-1.21,0-2.18-1.08-1.97-2.34c0.16-0.98,1.08-1.66,2.08-1.66H56z"/></svg>