<?xml version="1.0" standalone="no"?>
<!DOCTYPE svg PUBLIC "-//W3C//DTD SVG 20010904//EN"
 "http://www.w3.org/TR/2001/REC-SVG-20010904/DTD/svg10.dtd">
<svg version="1.0" xmlns="http://www.w3.org/2000/svg"
 width="1280.000000pt" height="983.000000pt" viewBox="0 0 1280.000000 983.000000"
 preserveAspectRatio="xMidYMid meet">
<metadata>
Created by potrace 1.15, written by Peter Selinger 2001-2017
</metadata>
<g transform="translate(0.000000,983.000000) scale(0.100000,-0.100000)"
fill="#ffffff" stroke="none">
<path d="M6110 8034 c-58 -8 -132 -21 -165 -29 -38 -9 -81 -12 -117 -8 -37 4
-80 0 -125 -11 -72 -17 -154 -31 -266 -46 -137 -19 -360 -100 -468 -170 -41
-28 -104 -61 -139 -75 -35 -14 -89 -44 -119 -68 -31 -24 -85 -63 -121 -87 -36
-24 -80 -60 -99 -79 -92 -96 -161 -186 -182 -239 -12 -31 -37 -79 -55 -107
-37 -56 -100 -215 -115 -290 -6 -27 -24 -93 -41 -145 -22 -71 -31 -122 -35
-200 -7 -139 18 -370 51 -480 50 -162 59 -205 53 -231 -11 -42 -52 -53 -165
-45 -86 6 -110 3 -222 -23 -69 -16 -173 -38 -231 -49 -148 -28 -496 -169 -619
-251 -30 -21 -82 -53 -115 -71 -33 -19 -96 -59 -140 -90 -44 -30 -102 -71
-130 -90 -27 -19 -84 -67 -125 -107 -41 -39 -118 -106 -170 -150 -52 -43 -111
-100 -131 -127 -40 -53 -79 -146 -79 -190 0 -15 -7 -42 -15 -62 -12 -29 -13
-59 -6 -172 12 -183 31 -232 145 -385 77 -103 98 -125 170 -171 92 -60 125
-91 110 -106 -6 -6 -55 -21 -110 -35 -132 -32 -326 -98 -379 -129 -23 -14 -74
-34 -114 -45 -103 -29 -258 -88 -316 -121 -27 -16 -75 -38 -106 -49 -31 -12
-101 -53 -155 -91 -55 -38 -129 -86 -167 -106 -115 -62 -144 -96 -173 -194
-15 -53 -29 -137 -36 -222 l-11 -136 54 -139 54 -138 105 -101 c136 -131 233
-213 305 -260 81 -51 250 -130 310 -145 58 -13 316 -98 392 -128 29 -11 94
-32 144 -46 51 -15 108 -34 128 -44 20 -10 56 -21 81 -25 25 -3 108 -19 185
-36 298 -63 482 -97 670 -124 55 -8 120 -22 145 -31 32 -11 109 -19 260 -26
118 -5 256 -14 305 -20 50 -6 126 -14 170 -19 215 -24 1634 -12 1770 14 44 9
157 20 250 26 94 6 193 15 220 20 28 6 131 15 230 20 110 5 199 15 229 24 27
9 63 16 81 16 17 0 65 8 106 19 41 10 142 29 224 41 179 26 277 47 445 93 257
71 375 108 422 132 31 16 99 35 191 51 97 18 177 40 252 69 61 24 153 60 205
81 52 20 160 59 240 85 179 58 265 95 377 161 49 28 129 72 178 98 192 100
306 161 337 180 58 35 168 123 287 229 64 57 149 129 189 158 108 80 148 127
179 207 14 39 39 97 55 129 16 31 37 90 48 130 10 39 34 108 54 152 21 48 40
111 46 155 6 41 15 90 21 108 21 64 8 347 -22 477 -27 120 -107 273 -188 360
-36 39 -91 100 -122 136 -40 46 -84 81 -150 121 -90 54 -124 68 -304 118 -44
13 -102 29 -130 37 -60 17 -244 22 -373 9 -82 -8 -94 -7 -112 9 -11 10 -20 22
-20 28 0 5 21 52 46 103 58 118 62 148 35 260 -63 258 -160 466 -291 624 -67
81 -67 80 -270 202 -74 44 -149 89 -167 100 -27 16 -57 20 -199 24 -183 6
-201 11 -227 67 -45 95 -115 291 -125 343 -6 35 -24 83 -41 111 -17 27 -56
103 -87 169 -32 65 -92 178 -134 249 -43 72 -97 165 -121 208 -30 54 -62 95
-108 135 -89 79 -166 134 -231 167 -30 15 -80 44 -111 65 -31 21 -76 48 -100
60 -50 26 -240 90 -266 90 -9 0 -69 18 -133 40 -78 27 -148 43 -215 51 -158
17 -426 19 -545 3z"/>
</g>
</svg>
