<?xml version="1.0" encoding="UTF-8"?>
<svg xmlns="http://www.w3.org/2000/svg" xmlns:xlink="http://www.w3.org/1999/xlink" viewBox="0 0 48 48" width="48px" height="48px">
<g id="surface39681497">
<path style=" stroke:none;fill-rule:nonzero;fill:rgb(94.509804%,76.862746%,5.882353%);fill-opacity:1;" d="M 39.175781 10.015625 C 40.863281 10.015625 41.304688 11.292969 40.808594 14.289062 C 40.234375 17.714844 38.589844 29.058594 37.277344 36.117188 C 36.777344 38.820312 35.871094 39.984375 34.554688 39.984375 C 33.832031 39.984375 32.984375 39.632812 32.007812 38.988281 C 30.6875 38.117188 24.023438 33.710938 22.578125 32.675781 C 21.257812 31.734375 19.4375 30.597656 21.722656 28.363281 C 22.535156 27.566406 27.859375 22.480469 32.011719 18.523438 C 32.453125 18.097656 32.082031 17.453125 31.589844 17.453125 C 31.480469 17.453125 31.359375 17.488281 31.242188 17.566406 C 25.648438 21.273438 17.894531 26.425781 16.90625 27.09375 C 15.917969 27.765625 14.957031 28.195312 13.675781 28.195312 C 13.019531 28.195312 12.28125 28.082031 11.410156 27.832031 C 9.46875 27.273438 7.570312 26.609375 6.832031 26.355469 C 3.988281 25.378906 4.664062 24.113281 7.425781 22.898438 C 18.503906 18.027344 32.839844 12.085938 34.816406 11.261719 C 36.746094 10.460938 38.179688 10.015625 39.175781 10.015625 M 39.175781 7.015625 C 37.808594 7.015625 36.160156 7.457031 33.667969 8.488281 L 33.371094 8.613281 C 22.734375 13.03125 13.09375 17.128906 6.21875 20.152344 C 5.144531 20.625 1.878906 22.0625 2.003906 25.066406 C 2.058594 26.363281 2.773438 28.132812 5.859375 29.191406 L 6.089844 29.269531 C 6.949219 29.566406 8.746094 30.1875 10.585938 30.714844 C 11.703125 31.035156 12.71875 31.191406 13.675781 31.191406 C 15.339844 31.191406 16.628906 30.71875 17.636719 30.164062 C 17.632812 30.332031 17.636719 30.503906 17.648438 30.671875 C 17.832031 32.984375 19.617188 34.253906 20.6875 35.011719 L 20.835938 35.117188 C 22.414062 36.242188 29.550781 40.960938 30.359375 41.492188 C 31.878906 42.496094 33.253906 42.984375 34.558594 42.984375 C 36.609375 42.984375 39.261719 41.886719 40.230469 36.664062 C 41.152344 31.710938 42.214844 24.792969 42.992188 19.742188 C 43.324219 17.585938 43.59375 15.816406 43.769531 14.78125 C 44.117188 12.6875 44.277344 10.3125 42.820312 8.59375 C 42.207031 7.875 41.078125 7.015625 39.175781 7.015625 Z M 39.175781 7.015625 "/>
</g>
</svg>
